<?xml version="1.0" standalone="no"?><!DOCTYPE svg PUBLIC "-//W3C//DTD SVG 1.1//EN" "http://www.w3.org/Graphics/SVG/1.1/DTD/svg11.dtd"><svg t="1488984207915" class="icon" style="" viewBox="0 0 1024 1024" version="1.1" xmlns="http://www.w3.org/2000/svg" p-id="4265" xmlns:xlink="http://www.w3.org/1999/xlink"><defs><style type="text/css"></style></defs><path d="M953.6 795.733333l-145.066667-192c53.333333-44.8 89.6-113.066667 89.6-187.733333C896 279.466667 787.2 170.666667 650.666667 170.666667 516.266667 170.666667 405.333333 279.466667 405.333333 416S516.266667 661.333333 650.666667 661.333333c44.8 0 85.333333-12.8 121.6-32v2.133334l145.066666 192c4.266667 6.4 10.666667 8.533333 17.066667 8.533333 4.266667 0 8.533333-2.133333 12.8-4.266667 10.666667-8.533333 12.8-23.466667 6.4-32zM448 416c0-110.933333 91.733333-202.666667 202.666667-202.666667s202.666667 91.733333 202.666666 202.666667-91.733333 202.666667-202.666666 202.666667-202.666667-91.733333-202.666667-202.666667zM128 277.333333h192c12.8 0 21.333333-8.533333 21.333333-21.333333s-8.533333-21.333333-21.333333-21.333333H128c-12.8 0-21.333333 8.533333-21.333333 21.333333s8.533333 21.333333 21.333333 21.333333zM128 490.666667c-12.8 0-21.333333 8.533333-21.333333 21.333333s8.533333 21.333333 21.333333 21.333333h128c12.8 0 21.333333-8.533333 21.333333-21.333333s-8.533333-21.333333-21.333333-21.333333H128zM467.2 701.866667h-341.333333c-12.8 0-21.333333 8.533333-21.333334 21.333333s8.533333 21.333333 21.333334 21.333333h341.333333c12.8 0 21.333333-8.533333 21.333333-21.333333s-8.533333-21.333333-21.333333-21.333333z" p-id="4266" fill="#1296db"></path></svg>